<?xml version="1.0" standalone="no"?>
<!DOCTYPE svg PUBLIC "-//W3C//DTD SVG 20010904//EN"
 "http://www.w3.org/TR/2001/REC-SVG-20010904/DTD/svg10.dtd">
<svg version="1.0" xmlns="http://www.w3.org/2000/svg"
 width="2925.000000pt" height="967.000000pt" viewBox="0 0 2925.000000 967.000000"
 preserveAspectRatio="xMidYMid meet">
<metadata>
Created by potrace 1.16, written by Peter Selinger 2001-2019
</metadata>
<g transform="translate(0.000000,967.000000) scale(0.100000,-0.100000)"
fill="#000000" stroke="none">
<path d="M21485 8960 l-70 -70 348 -347 347 -348 70 70 c38 38 70 74 70 80 0
13 -672 685 -685 685 -6 0 -42 -32 -80 -70z"/>
<path d="M27320 8685 l-345 -345 70 -70 c38 -38 74 -70 80 -70 5 0 165 155
355 345 l345 345 -70 70 c-38 38 -74 70 -80 70 -5 0 -165 -155 -355 -345z"/>
<path d="M24590 7066 l0 -253 -67 -7 c-218 -22 -410 -113 -570 -269 -164 -159
-254 -340 -285 -567 l-12 -90 -253 0 -253 0 0 -30 0 -30 254 0 253 0 7 -58
c50 -444 387 -797 813 -853 49 -6 94 -13 101 -15 9 -3 12 -62 12 -254 l0 -250
30 0 30 0 0 254 0 253 73 6 c304 27 606 236 747 517 60 120 100 265 100 362
l0 38 255 0 255 0 0 30 0 30 -252 2 -253 3 -7 74 c-44 433 -389 784 -829 843
l-89 12 0 253 0 253 -30 0 -30 0 0 -254z m-5 -616 l0 -294 -41 -12 c-120 -35
-175 -95 -229 -252 -4 -10 -68 -12 -297 -10 l-293 3 3 55 c14 259 193 540 434
683 115 68 314 130 398 124 l25 -2 0 -295z m253 269 c342 -90 590 -354 658
-697 8 -41 14 -89 14 -108 l0 -34 -297 2 -297 3 -8 38 c-18 86 -77 158 -163
199 -33 15 -68 28 -77 28 -17 0 -18 21 -18 301 l0 300 58 -6 c31 -4 90 -15
130 -26z m-513 -931 c21 -98 104 -187 202 -218 l58 -18 3 -296 2 -296 -35 0
c-20 0 -71 7 -113 16 -383 79 -672 396 -716 787 l-6 57 299 0 299 0 7 -32z
m1185 -3 c0 -102 -58 -279 -132 -402 -72 -121 -229 -264 -363 -330 -101 -50
-256 -93 -337 -93 l-28 0 0 300 0 300 23 0 c37 0 120 45 159 86 40 42 77 115
78 152 l0 22 300 0 300 0 0 -35z"/>
<path d="M4540 5588 c0 -1435 -1 -1406 55 -1618 53 -197 152 -403 277 -572 81
-111 261 -287 378 -371 403 -287 926 -383 1415 -260 582 145 1064 615 1220
1188 62 226 58 127 62 1603 l4 1352 -395 0 -395 0 -4 -1307 c-3 -1181 -5
-1315 -20 -1375 -87 -352 -339 -611 -682 -704 -55 -15 -102 -19 -220 -18 -132
1 -160 4 -238 27 -326 99 -562 342 -649 669 l-22 83 -3 1313 -3 1312 -390 0
-390 0 0 -1322z"/>
<path d="M1430 4805 l0 -2095 415 0 415 0 0 635 0 635 610 0 610 0 0 415 0
415 -610 0 -610 0 0 630 0 630 965 0 965 0 0 415 0 415 -1380 0 -1380 0 0
-2095z"/>
<path d="M8590 4805 l0 -2095 420 0 420 0 2 1089 3 1088 421 -916 421 -916
463 0 464 0 420 911 421 912 3 -1084 2 -1084 415 0 415 0 0 2095 0 2095 -413
0 -414 0 -654 -1424 c-360 -783 -657 -1421 -661 -1417 -6 5 -1278 2764 -1305
2829 -4 9 -98 12 -424 12 l-419 0 0 -2095z"/>
<path d="M13590 4805 l0 -2095 415 0 415 0 0 2095 0 2095 -415 0 -415 0 0
-2095z"/>
<path d="M21762 3127 c-188 -188 -342 -347 -342 -352 0 -6 32 -42 70 -80 l70
-70 345 345 c190 190 345 350 345 355 0 10 -131 145 -140 145 -3 0 -159 -154
-348 -343z"/>
<path d="M27052 3397 l-72 -72 348 -348 347 -347 75 75 75 75 -345 345 c-190
190 -347 345 -350 345 -3 0 -38 -33 -78 -73z"/>
<path d="M5070 2129 c-45 -19 -90 -60 -112 -102 -20 -37 -23 -60 -26 -202 -5
-198 5 -247 59 -309 121 -137 350 -75 388 105 17 80 18 79 -44 79 l-55 0 0
-34 c0 -48 -38 -98 -86 -115 -37 -13 -44 -12 -79 5 -74 37 -80 54 -80 237 0
178 4 195 58 227 42 26 97 26 131 -1 32 -25 56 -69 56 -104 0 -24 3 -25 56
-25 l56 0 -7 48 c-9 65 -50 136 -97 168 -32 23 -52 28 -116 31 -42 1 -88 -2
-102 -8z"/>
<path d="M8932 2115 c-41 -21 -60 -39 -83 -79 l-29 -51 2 -202 3 -201 30 -44
c57 -81 157 -113 257 -84 85 24 143 99 155 197 l6 49 -51 0 -50 0 -7 -40 c-14
-85 -96 -137 -168 -107 -67 28 -77 60 -77 235 0 172 10 211 61 237 81 43 162
-2 184 -102 6 -32 8 -33 57 -33 l51 0 -6 51 c-8 67 -43 126 -95 163 -37 26
-54 31 -115 34 -62 3 -79 0 -125 -23z"/>
<path d="M15580 2129 c-44 -18 -90 -59 -112 -102 -20 -37 -23 -60 -26 -202 -5
-198 5 -247 59 -309 121 -137 350 -75 388 105 17 79 18 79 -43 79 l-53 0 -6
-42 c-7 -55 -35 -90 -84 -107 -36 -13 -43 -12 -78 5 -74 37 -80 54 -80 237 0
178 4 195 58 227 42 26 97 26 131 -1 32 -25 56 -69 56 -104 0 -24 3 -25 56
-25 l56 0 -7 48 c-13 92 -68 164 -144 190 -41 14 -136 15 -171 1z"/>
<path d="M16374 2121 c-48 -22 -101 -82 -114 -131 -6 -19 -10 -112 -10 -206 0
-164 1 -172 26 -223 16 -32 41 -62 63 -76 117 -77 284 -38 339 79 20 42 22 62
22 228 0 202 -8 235 -66 290 -63 59 -178 76 -260 39z m167 -98 c53 -31 61 -66
57 -243 -3 -143 -5 -161 -24 -187 -32 -43 -83 -59 -135 -42 -74 24 -83 48 -87
217 -4 167 4 209 49 246 37 31 96 35 140 9z"/>
<path d="M19585 2121 c-51 -23 -101 -79 -114 -128 -6 -21 -11 -115 -11 -209 0
-164 1 -172 26 -223 16 -32 41 -62 63 -76 117 -77 284 -38 339 79 20 42 22 62
22 228 0 202 -8 235 -66 290 -63 58 -178 76 -259 39z m183 -115 l37 -34 0
-175 c0 -163 -2 -178 -21 -204 -32 -43 -83 -59 -135 -42 -74 24 -83 48 -87
217 -4 167 4 209 49 246 47 40 108 36 157 -8z"/>
<path d="M25941 2119 c-24 -12 -56 -40 -72 -61 -41 -57 -52 -128 -47 -302 3
-131 7 -156 26 -193 49 -93 150 -138 260 -114 47 11 65 22 103 60 53 55 69
103 69 210 l0 71 -115 0 -115 0 0 -45 0 -45 66 0 66 0 -6 -37 c-9 -51 -34 -84
-80 -107 -32 -16 -44 -17 -75 -7 -20 6 -48 22 -62 37 -23 24 -24 32 -27 182
-2 98 1 171 8 195 21 72 113 100 181 54 29 -20 40 -38 55 -94 2 -8 22 -13 55
-13 l52 0 -7 43 c-10 59 -50 123 -98 155 -58 38 -172 43 -237 11z"/>
<path d="M27520 2118 c-53 -27 -85 -72 -94 -131 -18 -118 37 -188 178 -233
101 -31 146 -58 158 -95 27 -82 -93 -150 -182 -104 -33 17 -60 61 -60 100 0
24 -3 25 -55 25 -61 0 -60 1 -44 -70 29 -130 152 -195 299 -160 125 30 185
157 131 276 -23 51 -59 73 -180 113 -111 36 -141 59 -141 111 0 47 22 77 67
89 76 21 145 -20 159 -95 6 -33 7 -34 55 -34 47 0 49 1 49 28 0 79 -46 152
-115 183 -59 27 -168 26 -225 -3z"/>
<path d="M1430 1790 l0 -340 180 0 180 0 0 50 0 50 -130 0 -130 0 0 290 0 290
-50 0 -50 0 0 -340z"/>
<path d="M2187 1798 c-59 -183 -107 -336 -107 -340 0 -5 24 -8 53 -8 l52 0 23
75 22 75 120 0 120 0 22 -75 22 -75 53 0 c32 0 53 4 53 11 0 10 -92 304 -181
577 l-31 92 -57 0 -57 0 -107 -332z m213 43 c22 -74 40 -138 40 -143 0 -4 -40
-8 -90 -8 -49 0 -90 2 -90 5 0 7 78 264 86 285 8 18 4 26 54 -139z"/>
<path d="M3430 1790 l0 -340 190 0 190 0 0 50 0 50 -135 0 -135 0 0 100 0 100
100 0 100 0 0 45 0 45 -100 0 -100 0 0 95 0 95 135 0 135 0 0 50 0 50 -190 0
-190 0 0 -340z"/>
<path d="M4140 2125 c0 -3 41 -75 90 -160 50 -85 90 -159 90 -165 0 -6 -43
-85 -95 -176 -52 -90 -95 -166 -95 -169 0 -3 26 -5 58 -5 l57 0 68 125 c38 69
70 125 72 125 2 0 34 -56 71 -125 l68 -125 58 0 c32 0 58 2 58 5 0 3 -43 79
-95 169 -52 90 -95 169 -95 175 0 7 41 82 90 168 50 85 90 157 90 159 0 2 -26
4 -58 4 l-59 0 -62 -115 c-34 -63 -64 -115 -66 -115 -2 0 -32 52 -66 115 l-63
115 -58 0 c-32 0 -58 -2 -58 -5z"/>
<path d="M5760 1790 l0 -340 190 0 190 0 0 50 0 50 -140 0 -140 0 0 100 0 100
100 0 100 0 0 45 0 45 -100 0 -100 0 0 95 0 95 140 0 140 0 0 50 0 50 -190 0
-190 0 0 -340z"/>
<path d="M6510 1790 l0 -340 180 0 180 0 0 50 0 50 -125 0 -125 0 0 290 0 290
-55 0 -55 0 0 -340z"/>
<path d="M7220 1790 l0 -340 190 0 190 0 0 50 0 50 -140 0 -140 0 0 100 0 100
105 0 105 0 0 45 0 45 -105 0 -105 0 0 95 0 95 140 0 140 0 0 50 0 50 -190 0
-190 0 0 -340z"/>
<path d="M7980 1790 l0 -340 50 0 50 0 0 232 0 233 129 -230 129 -230 51 -3
51 -3 0 340 0 341 -55 0 -55 0 -2 -225 -3 -225 -125 225 -125 225 -47 0 -48 0
0 -340z"/>
<path d="M9640 1790 l0 -340 50 0 50 0 0 340 0 340 -50 0 -50 0 0 -340z"/>
<path d="M10297 2123 c-6 -10 -217 -658 -217 -667 0 -3 24 -6 54 -6 l53 0 22
75 23 76 121 -3 121 -3 21 -70 21 -70 52 -3 c39 -2 52 0 52 11 0 7 -46 160
-103 338 l-103 324 -56 3 c-31 2 -58 -1 -61 -5z m106 -285 l44 -148 -95 0
c-73 0 -93 3 -89 13 3 7 24 78 48 157 24 78 44 139 46 134 1 -5 22 -75 46
-156z"/>
<path d="M11440 1790 l0 -340 190 0 190 0 0 50 0 50 -140 0 -140 0 0 100 0
100 100 0 100 0 0 45 0 45 -100 0 -100 0 0 95 0 95 140 0 140 0 0 50 0 50
-190 0 -190 0 0 -340z"/>
<path d="M12190 1790 l0 -340 50 0 50 0 2 231 3 231 130 -231 129 -231 48 0
48 0 0 340 0 340 -50 0 -50 0 -2 -231 -3 -231 -129 231 -128 231 -49 0 -49 0
0 -340z"/>
<path d="M13520 1790 l0 -340 190 0 190 0 0 50 0 50 -140 0 -140 0 0 100 0
100 105 0 105 0 0 45 0 45 -105 0 -105 0 0 95 0 95 140 0 140 0 0 50 0 50
-190 0 -190 0 0 -340z"/>
<path d="M14280 1790 l0 -340 180 0 180 0 0 50 0 50 -130 0 -130 0 0 290 0
290 -50 0 -50 0 0 -340z"/>
<path d="M17080 1791 l0 -341 55 0 55 0 2 224 3 224 125 -224 125 -224 48 0
47 0 0 340 0 340 -50 0 -50 0 -2 -229 -3 -228 -126 226 -127 226 -51 3 -51 3
0 -340z"/>
<path d="M17900 2080 l0 -50 80 0 80 0 0 -290 0 -290 50 0 50 0 0 290 0 290
80 0 80 0 0 50 0 50 -210 0 -210 0 0 -50z"/>
<path d="M18680 1791 l0 -341 50 0 50 0 0 95 0 95 48 0 47 -1 59 -94 59 -95
59 0 c32 0 58 2 58 5 0 3 -31 52 -69 108 l-68 102 39 19 c22 10 51 36 66 58
22 34 27 54 30 129 4 81 2 94 -23 144 -20 42 -37 61 -73 83 -44 25 -55 27
-189 30 l-143 4 0 -341z m265 223 c41 -19 65 -67 65 -129 0 -94 -46 -135 -162
-143 l-68 -5 0 147 0 146 66 0 c39 0 79 -6 99 -16z"/>
<path d="M20290 1790 l0 -340 180 0 180 0 0 50 0 50 -125 0 -125 0 0 290 0
290 -55 0 -55 0 0 -340z"/>
<path d="M21480 1790 l0 -340 121 0 c155 0 201 12 254 64 56 56 65 96 65 277
0 184 -9 220 -64 275 -53 54 -92 64 -248 64 l-128 0 0 -340z m271 224 c52 -27
69 -80 69 -224 0 -196 -32 -240 -174 -240 l-66 0 0 240 0 240 70 0 c45 0 82
-6 101 -16z"/>
<path d="M22300 1790 l0 -340 190 0 190 0 0 50 0 50 -135 0 -135 0 0 100 0
100 100 0 100 0 0 45 0 45 -100 0 -100 0 0 95 0 95 135 0 135 0 0 50 0 50
-190 0 -190 0 0 -340z"/>
<path d="M23530 1791 l0 -341 50 0 50 0 0 90 0 90 83 0 c147 0 223 56 248 183
16 76 0 175 -36 226 -14 21 -44 48 -68 62 -38 22 -55 24 -184 27 l-143 4 0
-341z m265 225 c45 -19 65 -61 65 -136 0 -112 -40 -150 -160 -150 l-70 0 0
150 0 150 65 0 c36 0 81 -6 100 -14z"/>
<path d="M24330 1790 l0 -340 180 0 180 0 0 50 0 50 -130 0 -130 0 0 290 0
290 -50 0 -50 0 0 -340z"/>
<path d="M25191 2108 c-15 -39 -211 -645 -211 -652 0 -3 24 -6 54 -6 l53 0 22
75 23 76 121 -3 121 -3 21 -70 21 -70 52 -3 c38 -2 52 1 52 10 0 7 -47 159
-103 338 l-104 325 -57 3 c-51 3 -57 1 -65 -20z m66 -416 c-49 -1 -91 -1 -93
1 -2 2 18 72 43 156 l47 152 46 -153 46 -153 -89 -3z"/>
<path d="M26687 1798 c-59 -183 -108 -336 -107 -340 0 -5 24 -8 53 -8 l52 0
23 75 22 75 120 0 120 0 22 -75 22 -75 53 0 c29 0 53 5 53 10 0 9 -109 355
-186 593 l-26 77 -57 0 -57 0 -107 -332z m213 43 c22 -74 40 -138 40 -143 0
-4 -40 -8 -90 -8 -49 0 -90 3 -90 6 0 7 77 261 86 284 8 18 4 26 54 -139z"/>
</g>
</svg>
